<svg width="73" height="73" fill="none" xmlns="http://www.w3.org/2000/svg"><path d="M72.5 36.5c0 19.882-16.118 36-36 36s-36-16.118-36-36 16.118-36 36-36 36 16.118 36 36z" stroke="#DC2C2C"/><path d="M26.132 42.266c3.452 4.126 7.608 7.375 12.351 9.674 1.806.856 4.22 1.871 6.912 2.046.166.007.326.014.493.014 1.806 0 3.256-.624 4.438-1.907.007-.008.022-.022.03-.037.42-.507.898-.964 1.399-1.45.34-.327.689-.667 1.023-1.016 1.544-1.61 1.544-3.655-.015-5.214l-4.359-4.359c-.74-.768-1.624-1.175-2.553-1.175-.928 0-1.82.407-2.581 1.168l-2.597 2.596c-.24-.137-.486-.26-.718-.377a8.978 8.978 0 01-.797-.435c-2.365-1.501-4.511-3.46-6.564-5.976-1.037-1.312-1.733-2.415-2.22-3.539a43.582 43.582 0 001.937-1.893c.218-.225.443-.45.667-.674.784-.784 1.204-1.69 1.204-2.611 0-.921-.413-1.828-1.204-2.61l-2.16-2.162a57.92 57.92 0 01-.74-.754c-.48-.494-.98-1.001-1.473-1.458-.747-.733-1.624-1.117-2.553-1.117-.92 0-1.805.384-2.581 1.124l-2.713 2.713a5.573 5.573 0 00-1.66 3.568c-.138 1.733.18 3.575 1.008 5.802 1.269 3.444 3.183 6.643 6.026 10.059zm-5.265-15.709a3.836 3.836 0 011.153-2.466l2.698-2.698c.42-.406.885-.616 1.334-.616.443 0 .893.21 1.306.63.486.45.943.922 1.436 1.422.246.254.5.508.754.769l2.161 2.161c.45.45.682.907.682 1.356 0 .45-.232.907-.682 1.357-.224.224-.45.456-.674.681-.675.682-1.306 1.328-2.002 1.944l-.036.036c-.602.602-.508 1.175-.363 1.61.008.022.015.036.022.058.559 1.342 1.335 2.618 2.546 4.141 2.175 2.684 4.467 4.765 6.99 6.368.313.203.646.363.958.522.29.145.559.283.798.435.029.015.05.03.08.044.24.123.471.181.703.181.58 0 .958-.37 1.08-.493l2.713-2.712c.42-.421.878-.646 1.327-.646.552 0 1.001.341 1.284.646l4.373 4.366c.87.87.863 1.813-.022 2.734a23.68 23.68 0 01-.964.964c-.508.493-1.037 1.001-1.516 1.574-.834.9-1.827 1.32-3.111 1.32-.123 0-.254-.007-.377-.015-2.379-.152-4.59-1.08-6.252-1.87-4.51-2.184-8.47-5.28-11.756-9.211-2.705-3.257-4.525-6.288-5.73-9.537-.746-1.994-1.03-3.597-.913-5.055z" fill="#fff"/></svg>