<svg width="36" height="36" fill="none" xmlns="http://www.w3.org/2000/svg"><path fill-rule="evenodd" clip-rule="evenodd" d="M17.989 35.69h-.008a17.823 17.823 0 01-8.524-2.17L0 36l2.53-9.244a17.807 17.807 0 01-2.38-8.918C.153 8.002 8.156 0 17.989 0a17.724 17.724 0 0112.619 5.232 17.731 17.731 0 015.22 12.62c-.004 9.833-8.004 17.835-17.84 17.839zm-8.094-5.4l.541.321a14.804 14.804 0 007.547 2.067h.006c8.172 0 14.823-6.652 14.827-14.827a14.738 14.738 0 00-4.339-10.49 14.726 14.726 0 00-10.482-4.348c-8.179 0-14.83 6.65-14.834 14.826a14.791 14.791 0 002.267 7.89l.353.562-1.498 5.47 5.612-1.471zm17.081-8.196c-.111-.186-.409-.298-.854-.52-.446-.224-2.637-1.302-3.046-1.45-.409-.15-.706-.224-1.003.222-.297.446-1.151 1.45-1.411 1.748-.26.297-.52.335-.966.111-.446-.223-1.882-.693-3.584-2.212-1.325-1.182-2.22-2.641-2.48-3.088-.26-.446-.028-.687.195-.91.2-.2.446-.52.669-.78.223-.26.297-.447.446-.744.148-.297.074-.558-.037-.78-.112-.224-1.003-2.418-1.375-3.31-.362-.87-.73-.752-1.003-.766-.26-.013-.557-.015-.854-.015-.297 0-.78.111-1.189.558-.408.446-1.56 1.524-1.56 3.718s1.598 4.313 1.82 4.61c.223.299 3.143 4.8 7.615 6.731a25.62 25.62 0 002.54.94c1.069.339 2.04.29 2.808.176.857-.128 2.637-1.078 3.01-2.12.37-1.04.37-1.933.259-2.12z" fill="#FDFDFD"/></svg>